<svg xmlns="http://www.w3.org/2000/svg" xmlns:xlink="http://www.w3.org/1999/xlink" width="500" zoomAndPan="magnify" viewBox="0 0 375 374.999991" height="500" preserveAspectRatio="xMidYMid meet" version="1.0"><defs><g/><clipPath id="d3f6c02b10"><path d="M 47.222656 174.15625 L 59 174.15625 L 59 206 L 47.222656 206 Z M 47.222656 174.15625 " clip-rule="nonzero"/></clipPath><clipPath id="7b69968002"><path d="M 59 180 L 72 180 L 72 211.65625 L 59 211.65625 Z M 59 180 " clip-rule="nonzero"/></clipPath></defs><rect x="-37.5" width="450" fill="#ffffff" y="-37.499999" height="449.999989" fill-opacity="1"/><rect x="-37.5" width="450" fill="#ffffff" y="-37.499999" height="449.999989" fill-opacity="1"/><g clip-path="url(#d3f6c02b10)"><path fill="#7ed957" d="M 47.234375 191.789062 L 47.234375 187.875 C 48.027344 187.832031 48.625 187.710938 49.027344 187.515625 C 49.429688 187.320312 49.777344 186.992188 50.070312 186.527344 C 50.367188 186.066406 50.566406 185.488281 50.675781 184.789062 C 50.761719 184.269531 50.804688 183.359375 50.804688 182.066406 C 50.804688 179.957031 50.902344 178.488281 51.101562 177.65625 C 51.296875 176.824219 51.648438 176.15625 52.160156 175.648438 C 52.671875 175.144531 53.414062 174.742188 54.394531 174.449219 C 55.058594 174.253906 56.101562 174.15625 57.527344 174.15625 L 58.390625 174.15625 L 58.390625 178.054688 C 57.183594 178.054688 56.410156 178.125 56.066406 178.257812 C 55.722656 178.394531 55.472656 178.601562 55.308594 178.878906 C 55.144531 179.15625 55.0625 179.632812 55.0625 180.304688 C 55.0625 180.992188 55.015625 182.289062 54.917969 184.203125 C 54.863281 185.28125 54.71875 186.152344 54.492188 186.820312 C 54.265625 187.492188 53.972656 188.042969 53.621094 188.476562 C 53.265625 188.910156 52.726562 189.363281 51.996094 189.832031 C 52.636719 190.199219 53.164062 190.632812 53.570312 191.128906 C 53.980469 191.621094 54.289062 192.222656 54.507812 192.929688 C 54.726562 193.636719 54.867188 194.582031 54.933594 195.769531 C 55.007812 197.574219 55.046875 198.726562 55.046875 199.226562 C 55.046875 199.941406 55.132812 200.441406 55.308594 200.726562 C 55.480469 201.007812 55.746094 201.222656 56.097656 201.371094 C 56.453125 201.515625 57.214844 201.589844 58.390625 201.589844 L 58.390625 205.503906 L 57.527344 205.503906 C 56.058594 205.503906 54.933594 205.386719 54.148438 205.152344 C 53.367188 204.921875 52.707031 204.53125 52.167969 203.988281 C 51.628906 203.445312 51.269531 202.773438 51.082031 201.972656 C 50.898438 201.175781 50.804688 199.914062 50.804688 198.199219 C 50.804688 196.199219 50.71875 194.898438 50.546875 194.300781 C 50.304688 193.429688 49.945312 192.808594 49.460938 192.433594 C 48.976562 192.058594 48.234375 191.84375 47.234375 191.789062 " fill-opacity="1" fill-rule="nonzero"/></g><path fill="#000000" d="M 71.976562 182.277344 L 69.425781 182.277344 L 69.425781 179.726562 L 71.976562 179.726562 L 71.976562 182.277344 " fill-opacity="1" fill-rule="nonzero"/><path fill="#000000" d="M 71.375 187.382812 L 69.425781 187.382812 L 69.425781 185.433594 L 71.375 185.433594 L 71.375 187.382812 " fill-opacity="1" fill-rule="nonzero"/><g clip-path="url(#7b69968002)"><path fill="#000000" d="M 63.949219 184.226562 L 63.949219 182.277344 L 65.898438 182.277344 L 65.898438 184.226562 Z M 68.910156 193.347656 C 68.421875 192.972656 68.058594 192.347656 67.816406 191.480469 C 67.6875 190.988281 67.609375 190.046875 67.582031 188.660156 L 65.898438 188.660156 L 65.898438 186.105469 L 67.546875 186.105469 C 67.503906 185.121094 67.417969 184.355469 67.289062 183.804688 C 67.097656 183.007812 66.734375 182.332031 66.203125 181.78125 C 65.671875 181.234375 65.011719 180.84375 64.230469 180.617188 C 63.445312 180.386719 62.320312 180.273438 60.851562 180.273438 L 59.988281 180.273438 L 59.988281 184.171875 C 61.21875 184.171875 62.007812 184.246094 62.363281 184.390625 C 62.714844 184.539062 62.960938 184.75 63.097656 185.019531 C 63.230469 185.292969 63.304688 185.835938 63.316406 186.652344 C 63.371094 189.238281 63.457031 190.914062 63.578125 191.675781 C 63.761719 192.785156 64.109375 193.695312 64.621094 194.414062 C 64.992188 194.914062 65.578125 195.425781 66.382812 195.949219 C 65.761719 196.308594 65.253906 196.722656 64.855469 197.195312 C 64.460938 197.667969 64.140625 198.246094 63.902344 198.925781 C 63.664062 199.605469 63.515625 200.507812 63.460938 201.640625 C 63.375 203.511719 63.328125 204.777344 63.324219 205.441406 C 63.320312 206.105469 63.230469 206.574219 63.0625 206.851562 C 62.894531 207.128906 62.632812 207.339844 62.273438 207.488281 C 61.914062 207.632812 61.152344 207.707031 59.988281 207.707031 L 59.988281 211.621094 L 60.851562 211.621094 C 62.277344 211.621094 63.320312 211.523438 63.984375 211.328125 C 64.972656 211.035156 65.722656 210.636719 66.234375 210.128906 C 66.746094 209.625 67.097656 208.953125 67.289062 208.117188 C 67.476562 207.277344 67.574219 205.804688 67.574219 203.695312 C 67.574219 202.414062 67.617188 201.511719 67.703125 200.988281 C 67.824219 200.292969 68.027344 199.714844 68.316406 199.25 C 68.601562 198.789062 68.949219 198.460938 69.351562 198.265625 C 69.753906 198.070312 70.351562 197.949219 71.144531 197.90625 L 71.144531 193.992188 C 70.144531 193.9375 69.398438 193.722656 68.910156 193.347656 " fill-opacity="1" fill-rule="nonzero"/></g><path fill="#000000" d="M 76.957031 177.320312 L 75.003906 177.320312 L 75.003906 175.367188 L 76.957031 175.367188 L 76.957031 177.320312 " fill-opacity="1" fill-rule="nonzero"/><path fill="#000000" d="M 67.175781 179.726562 L 63.535156 179.726562 L 63.535156 176.082031 L 67.175781 176.082031 L 67.175781 179.726562 " fill-opacity="1" fill-rule="nonzero"/><g fill="#67c656" fill-opacity="1"><g transform="translate(88.441025, 201.518262)"><g><path d="M 23 -18.707031 L 20.90625 -18.707031 C 19.609375 -18.707031 18.734375 -18.335938 18.285156 -17.675781 C 17.832031 -18.335938 16.851562 -18.707031 15.660156 -18.707031 L 13.460938 -18.707031 L 13.460938 -18.097656 C 15.714844 -17.566406 16.347656 -16.695312 16.347656 -15.105469 L 16.347656 -10.359375 L 7.234375 -10.359375 L 7.234375 -15.105469 C 7.234375 -16.667969 7.84375 -17.566406 10.121094 -18.097656 L 10.121094 -18.707031 L 7.921875 -18.707031 C 6.730469 -18.707031 5.75 -18.335938 5.300781 -17.675781 C 4.847656 -18.335938 3.976562 -18.707031 2.675781 -18.707031 L 0.582031 -18.707031 L 0.582031 -18.097656 C 2.78125 -17.566406 3.390625 -16.640625 3.390625 -15.105469 L 3.390625 -3.605469 C 3.390625 -2.121094 2.835938 -1.140625 0.554688 -0.609375 L 0.554688 0 L 2.675781 0 C 4 0 4.847656 -0.371094 5.300781 -1.035156 C 5.75 -0.371094 6.703125 0 7.921875 0 L 10.09375 0 L 10.09375 -0.609375 C 7.921875 -1.140625 7.234375 -1.988281 7.234375 -3.605469 L 7.234375 -8.824219 L 16.347656 -8.824219 L 16.347656 -3.605469 C 16.347656 -2.09375 15.820312 -1.191406 13.515625 -0.609375 L 13.515625 0 L 15.660156 0 C 16.851562 0 17.832031 -0.371094 18.285156 -1.035156 C 18.734375 -0.371094 19.609375 0 20.90625 0 L 23 0 L 23 -0.609375 C 20.429688 -1.21875 20.191406 -2.410156 20.191406 -3.605469 L 20.191406 -15.105469 C 20.191406 -16.71875 20.90625 -17.566406 23 -18.097656 Z M 23 -18.707031 "/></g></g></g><g fill="#67c656" fill-opacity="1"><g transform="translate(112.022558, 201.518262)"><g><path d="M 2.675781 0 C 3.976562 0 4.847656 -0.371094 5.300781 -1.035156 C 5.75 -0.371094 6.703125 0 7.921875 0 L 9.988281 0 L 9.988281 -0.664062 C 7.65625 -1.273438 7.207031 -2.144531 7.207031 -3.761719 L 7.207031 -8.585938 L 7.394531 -8.585938 C 10.175781 -8.585938 13.9375 -2.039062 13.9375 0 L 14.625 0 C 15.765625 0 16.402344 -0.265625 16.402344 -1.035156 C 17.277344 -0.371094 18.628906 0 19.847656 0 L 20.800781 0 L 20.800781 -0.664062 C 16.082031 -2.464844 15.976562 -7.871094 11.128906 -8.902344 L 11.128906 -8.984375 C 14.945312 -9.246094 17.515625 -11.15625 17.515625 -13.859375 C 17.515625 -17.089844 14.785156 -18.707031 10.175781 -18.707031 C 7.523438 -18.707031 6.015625 -18.335938 5.300781 -17.675781 C 4.847656 -18.335938 4 -18.707031 2.675781 -18.707031 L 0.582031 -18.707031 L 0.582031 -18.042969 C 2.886719 -17.460938 3.3125 -16.585938 3.3125 -15.105469 L 3.3125 -3.761719 C 3.3125 -2.121094 2.835938 -1.246094 0.609375 -0.664062 L 0.609375 0 Z M 7.207031 -15.023438 C 7.207031 -16.640625 7.578125 -17.566406 9.511719 -17.566406 C 11.949219 -17.566406 13.273438 -16.003906 13.273438 -13.566406 C 13.273438 -10.996094 11.578125 -9.804688 8.824219 -9.804688 L 7.207031 -9.804688 Z M 7.207031 -15.023438 "/></g></g></g><g fill="#67c656" fill-opacity="1"><g transform="translate(133.033978, 201.518262)"><g><path d="M 0.503906 0 C 1.828125 0 2.675781 -0.371094 3.125 -1.035156 C 3.578125 -0.371094 4.53125 0 5.75 0 L 6.597656 0 L 6.597656 -0.664062 C 4.953125 -1.113281 4 -2.015625 4.691406 -4.054688 L 5.75 -7.179688 L 12.292969 -7.179688 L 13.644531 -3.605469 C 14.230469 -2.039062 13.832031 -1.140625 11.925781 -0.664062 L 11.925781 0 L 13.433594 0 C 14.757812 0 15.605469 -0.371094 16.058594 -1.035156 C 16.507812 -0.371094 17.460938 0 18.679688 0 L 20.136719 0 L 20.136719 -0.664062 C 18.679688 -1.164062 18.230469 -2.492188 17.460938 -4.425781 L 12.984375 -15.6875 C 12.585938 -16.695312 12.164062 -17.675781 12.320312 -18.707031 C 10.386719 -18.707031 9.460938 -18.390625 8.984375 -17.675781 C 8.53125 -18.335938 7.65625 -18.707031 6.625 -18.707031 L 5.695312 -18.707031 L 5.695312 -18.042969 C 7.261719 -17.832031 7.894531 -16.535156 7.207031 -14.757812 L 2.996094 -3.921875 C 2.359375 -2.332031 1.75 -1.273438 0.210938 -0.664062 L 0.210938 0 Z M 9.035156 -15.582031 L 11.710938 -8.691406 L 6.332031 -8.691406 Z M 9.035156 -15.582031 "/></g></g></g><g fill="#67c656" fill-opacity="1"><g transform="translate(153.409484, 201.518262)"><g/></g></g><g fill="#211d1d" fill-opacity="1"><g transform="translate(161.765238, 201.518262)"><g><path d="M 2.015625 0.554688 C 2.304688 -0.078125 2.597656 -0.183594 3.363281 -0.105469 C 4.292969 0 5.777344 0.371094 7.523438 0.371094 C 12.851562 0.371094 14.785156 -2.464844 14.785156 -5.007812 C 14.785156 -6.542969 14.097656 -7.84375 12.71875 -9.0625 C 10.835938 -10.757812 7.683594 -12.109375 6.359375 -13.222656 C 5.644531 -13.804688 5.113281 -14.574219 5.113281 -15.527344 C 5.113281 -16.71875 5.933594 -17.859375 7.738281 -17.859375 C 9.855469 -17.859375 12.269531 -16.324219 13.671875 -12.957031 L 14.335938 -12.957031 L 14.335938 -14.335938 C 14.335938 -15.367188 14.203125 -16.296875 13.300781 -17.0625 C 14.015625 -17.144531 14.335938 -17.804688 14.335938 -18.734375 L 14.335938 -19.316406 L 13.671875 -19.316406 C 13.433594 -18.679688 13.117188 -18.546875 12.402344 -18.601562 C 11.554688 -18.679688 10.070312 -19.078125 8.265625 -19.078125 C 4.105469 -19.078125 1.589844 -17.089844 1.589844 -14.253906 C 1.589844 -13.011719 1.960938 -12.03125 3.390625 -10.730469 C 5.273438 -9.035156 8.320312 -7.710938 9.832031 -6.28125 C 10.679688 -5.484375 11.128906 -4.503906 11.128906 -3.390625 C 11.128906 -2.039062 10.308594 -0.953125 8.480469 -0.953125 C 6.199219 -0.953125 4.105469 -2.386719 2.015625 -5.75 L 1.351562 -5.75 L 1.351562 -4.53125 C 1.351562 -3.074219 1.667969 -2.304688 2.386719 -1.695312 C 1.773438 -1.617188 1.351562 -1.058594 1.351562 0.0273438 L 1.351562 0.554688 Z M 2.015625 0.554688 "/></g></g></g><g fill="#211d1d" fill-opacity="1"><g transform="translate(177.954359, 201.518262)"><g><path d="M 11.15625 0.292969 C 17.039062 0.292969 21.332031 -3.84375 21.332031 -9.511719 C 21.332031 -15.078125 17.277344 -19 11.421875 -19 C 5.484375 -19 1.113281 -14.917969 1.113281 -9.300781 C 1.113281 -3.65625 5.21875 0.292969 11.15625 0.292969 Z M 11.394531 -0.925781 C 7.710938 -0.925781 5.324219 -4.691406 5.324219 -10.519531 C 5.324219 -15.105469 7.472656 -17.804688 11.15625 -17.804688 C 14.734375 -17.804688 17.171875 -13.964844 17.171875 -8.242188 C 17.171875 -3.605469 15.050781 -0.925781 11.394531 -0.925781 Z M 11.394531 -0.925781 "/></g></g></g><g fill="#211d1d" fill-opacity="1"><g transform="translate(200.423057, 201.518262)"><g><path d="M 16.851562 -5.75 L 16.191406 -5.75 C 15.421875 -2.730469 13.460938 -1.191406 10.785156 -1.191406 C 7.976562 -1.164062 7.179688 -2.277344 7.179688 -4.714844 L 7.179688 -15.105469 C 7.179688 -16.613281 7.710938 -17.460938 9.988281 -18.042969 L 9.988281 -18.707031 L 7.921875 -18.707031 C 6.703125 -18.707031 5.75 -18.335938 5.300781 -17.675781 C 4.847656 -18.335938 3.976562 -18.707031 2.675781 -18.707031 L 0.582031 -18.707031 L 0.582031 -18.042969 C 2.886719 -17.460938 3.339844 -16.5625 3.339844 -15.105469 L 3.339844 -4.132812 C 3.339844 -2.253906 2.914062 -1.246094 0.582031 -0.664062 L 0.582031 0 L 2.675781 0 C 3.976562 0 4.847656 -0.371094 5.300781 -1.035156 C 5.75 -0.371094 6.703125 0 7.921875 0 L 14.601562 0 C 15.421875 0 15.953125 0 16.191406 0.554688 L 16.851562 0.554688 L 16.851562 0.0273438 C 16.851562 -0.980469 16.480469 -1.589844 15.820312 -1.695312 C 16.507812 -2.277344 16.851562 -2.996094 16.851562 -4.425781 Z M 16.851562 -5.75 "/></g></g></g><g fill="#211d1d" fill-opacity="1"><g transform="translate(217.963485, 201.518262)"><g><path d="M 21.144531 -18.707031 C 19.953125 -18.707031 18.972656 -18.335938 18.523438 -17.675781 C 18.070312 -18.335938 17.222656 -18.707031 15.898438 -18.707031 L 14.734375 -18.707031 L 14.734375 -18.097656 C 17.355469 -17.566406 17.832031 -16.375 17.832031 -14.308594 L 17.832031 -6.808594 C 17.832031 -3.472656 15.792969 -1.617188 12.136719 -1.617188 C 8.691406 -1.617188 6.96875 -3.496094 6.96875 -7.15625 L 6.96875 -14.308594 C 6.96875 -16.003906 7.394531 -17.515625 9.75 -18.097656 L 9.75 -18.707031 L 7.738281 -18.707031 C 6.492188 -18.707031 5.539062 -18.335938 5.113281 -17.675781 C 4.636719 -18.335938 3.789062 -18.707031 2.492188 -18.707031 L 0.371094 -18.707031 L 0.371094 -18.097656 C 2.492188 -17.566406 3.152344 -16.269531 3.152344 -14.308594 L 3.152344 -6.175781 C 3.152344 -2.332031 5.589844 0.316406 11.234375 0.316406 C 16.347656 0.316406 19.183594 -2.039062 19.183594 -6.253906 L 19.183594 -14.492188 C 19.183594 -16.453125 19.847656 -17.566406 22.046875 -18.097656 L 22.046875 -18.707031 Z M 21.144531 -18.707031 "/></g></g></g><g fill="#211d1d" fill-opacity="1"><g transform="translate(240.352693, 201.518262)"><g><path d="M 7.367188 0 C 8.664062 0 9.539062 -0.371094 9.988281 -1.035156 C 10.441406 -0.371094 11.421875 0 12.613281 0 L 15.289062 0 L 15.289062 -0.664062 C 12.269531 -1.246094 11.949219 -2.226562 11.949219 -3.605469 L 11.949219 -14.707031 C 11.949219 -16.214844 12.292969 -17.566406 14.28125 -17.566406 C 15.871094 -17.566406 17.78125 -16.003906 18.652344 -12.957031 L 19.316406 -12.957031 L 19.316406 -14.335938 C 19.316406 -15.554688 19.050781 -16.375 18.285156 -17.0625 C 18.945312 -17.144531 19.316406 -17.753906 19.316406 -18.734375 L 19.316406 -19.316406 L 18.652344 -19.316406 C 18.390625 -18.707031 17.914062 -18.707031 17.0625 -18.707031 L 2.914062 -18.707031 C 2.066406 -18.707031 1.589844 -18.707031 1.324219 -19.316406 L 0.664062 -19.316406 L 0.664062 -18.734375 C 0.664062 -17.753906 1.035156 -17.144531 1.695312 -17.0625 C 0.925781 -16.375 0.664062 -15.554688 0.664062 -14.335938 L 0.664062 -12.957031 L 1.324219 -12.957031 C 2.199219 -16.003906 4.105469 -17.566406 5.695312 -17.566406 C 7.683594 -17.566406 8.054688 -16.214844 8.054688 -14.707031 L 8.054688 -3.605469 C 8.054688 -2.199219 7.65625 -1.246094 4.714844 -0.664062 L 4.714844 0 Z M 7.367188 0 "/></g></g></g><g fill="#211d1d" fill-opacity="1"><g transform="translate(260.330758, 201.518262)"><g><path d="M 10.121094 -18.707031 L 7.921875 -18.707031 C 6.730469 -18.707031 5.75 -18.335938 5.300781 -17.675781 C 4.847656 -18.335938 4 -18.707031 2.675781 -18.707031 L 0.582031 -18.707031 L 0.582031 -18.042969 C 2.730469 -17.566406 3.417969 -16.71875 3.417969 -15.105469 L 3.417969 -3.605469 C 3.417969 -2.171875 2.886719 -1.140625 0.582031 -0.664062 L 0.582031 0 L 2.675781 0 C 3.976562 0 4.847656 -0.371094 5.300781 -1.035156 C 5.75 -0.371094 6.730469 0 7.921875 0 L 10.09375 0 L 10.09375 -0.664062 C 7.789062 -1.140625 7.234375 -2.121094 7.234375 -3.605469 L 7.234375 -15.105469 C 7.234375 -16.480469 7.683594 -17.542969 10.121094 -18.042969 Z M 10.121094 -18.707031 "/></g></g></g><g fill="#211d1d" fill-opacity="1"><g transform="translate(271.035183, 201.518262)"><g><path d="M 11.15625 0.292969 C 17.039062 0.292969 21.332031 -3.84375 21.332031 -9.511719 C 21.332031 -15.078125 17.277344 -19 11.421875 -19 C 5.484375 -19 1.113281 -14.917969 1.113281 -9.300781 C 1.113281 -3.65625 5.21875 0.292969 11.15625 0.292969 Z M 11.394531 -0.925781 C 7.710938 -0.925781 5.324219 -4.691406 5.324219 -10.519531 C 5.324219 -15.105469 7.472656 -17.804688 11.15625 -17.804688 C 14.734375 -17.804688 17.171875 -13.964844 17.171875 -8.242188 C 17.171875 -3.605469 15.050781 -0.925781 11.394531 -0.925781 Z M 11.394531 -0.925781 "/></g></g></g><g fill="#211d1d" fill-opacity="1"><g transform="translate(293.503882, 201.518262)"><g><path d="M 22.074219 -18.707031 C 20.855469 -18.707031 19.898438 -18.335938 19.449219 -17.675781 C 19 -18.335938 18.125 -18.707031 16.824219 -18.707031 L 15.554688 -18.707031 L 15.554688 -18.042969 C 17.914062 -17.566406 18.734375 -16.667969 18.734375 -14.917969 L 18.734375 -5.589844 L 9.910156 -14.652344 C 8.320312 -16.324219 7.394531 -17.410156 7.234375 -18.707031 L 5.566406 -18.707031 C 4.609375 -18.707031 4.082031 -18.335938 3.976562 -17.675781 C 3.363281 -18.335938 2.464844 -18.707031 1.40625 -18.707031 L 0.425781 -18.707031 L 0.425781 -18.042969 C 2.144531 -17.621094 2.78125 -17.0625 3.976562 -15.660156 L 3.976562 -3.976562 C 3.976562 -2.226562 3.605469 -1.191406 0.742188 -0.664062 L 0.742188 0 L 2.039062 0 C 3.285156 0 4.160156 -0.316406 4.664062 -1.035156 C 5.113281 -0.371094 6.066406 0 7.285156 0 L 8.746094 0 L 8.746094 -0.664062 C 5.933594 -1.191406 5.351562 -2.066406 5.351562 -3.894531 L 5.351562 -14.230469 L 19.34375 0.316406 L 20.640625 0.316406 L 20.640625 -0.34375 C 20.113281 -1.855469 20.113281 -3.496094 20.113281 -4.980469 L 20.113281 -15.316406 C 20.113281 -16.640625 20.589844 -17.566406 22.839844 -18.042969 L 22.839844 -18.707031 Z M 22.074219 -18.707031 "/></g></g></g><g fill="#211d1d" fill-opacity="1"><g transform="translate(316.793957, 201.518262)"><g><path d="M 2.015625 0.554688 C 2.304688 -0.078125 2.597656 -0.183594 3.363281 -0.105469 C 4.292969 0 5.777344 0.371094 7.523438 0.371094 C 12.851562 0.371094 14.785156 -2.464844 14.785156 -5.007812 C 14.785156 -6.542969 14.097656 -7.84375 12.71875 -9.0625 C 10.835938 -10.757812 7.683594 -12.109375 6.359375 -13.222656 C 5.644531 -13.804688 5.113281 -14.574219 5.113281 -15.527344 C 5.113281 -16.71875 5.933594 -17.859375 7.738281 -17.859375 C 9.855469 -17.859375 12.269531 -16.324219 13.671875 -12.957031 L 14.335938 -12.957031 L 14.335938 -14.335938 C 14.335938 -15.367188 14.203125 -16.296875 13.300781 -17.0625 C 14.015625 -17.144531 14.335938 -17.804688 14.335938 -18.734375 L 14.335938 -19.316406 L 13.671875 -19.316406 C 13.433594 -18.679688 13.117188 -18.546875 12.402344 -18.601562 C 11.554688 -18.679688 10.070312 -19.078125 8.265625 -19.078125 C 4.105469 -19.078125 1.589844 -17.089844 1.589844 -14.253906 C 1.589844 -13.011719 1.960938 -12.03125 3.390625 -10.730469 C 5.273438 -9.035156 8.320312 -7.710938 9.832031 -6.28125 C 10.679688 -5.484375 11.128906 -4.503906 11.128906 -3.390625 C 11.128906 -2.039062 10.308594 -0.953125 8.480469 -0.953125 C 6.199219 -0.953125 4.105469 -2.386719 2.015625 -5.75 L 1.351562 -5.75 L 1.351562 -4.53125 C 1.351562 -3.074219 1.667969 -2.304688 2.386719 -1.695312 C 1.773438 -1.617188 1.351562 -1.058594 1.351562 0.0273438 L 1.351562 0.554688 Z M 2.015625 0.554688 "/></g></g></g></svg>